<svg viewBox="0 0 900 520" xmlns="http://www.w3.org/2000/svg" 
        style="background:#0a0e17;border-radius:8px;border:1px solid #1f2937;width:100%;height:auto;max-width:900px">
<style>
  @media (max-width: 700px) { svg { max-width: 300px; } }
</style>
<text x="450" y="22" text-anchor="middle" fill="#e5e7eb" font-size="12" font-weight="700">轨道分布残差 — 观测 vs Granvik 2018 模型</text><text x="450" y="38" text-anchor="middle" fill="#94a3b8" font-size="9">红色 = 欠巡天区 (missing) | 绿色 = 过巡天区 | 灰点 = 符合预期</text><g transform="translate(10, 0)"><g transform="translate(0, 55)">
<text x="0" y="-8" fill="#e5e7eb" font-size="11" font-weight="600">半长轴 a (AU)</text>
<text x="65" y="17.0" text-anchor="end" fill="#94a3b8" font-size="9">0.5-0.7</text>
<rect x="70" y="4" width="2" height="18" rx="3" fill="#3b82f6" opacity="0.8"/>
<text x="77" y="16.0" fill="#e5e7eb" font-size="8">135</text>
<circle cx="400" cy="13.0" r="4" fill="#ef4444"/>
<text x="408" y="16.0" fill="#ef4444" font-size="8" font-weight="600">-72%</text>
<text x="65" y="41.0" text-anchor="end" fill="#94a3b8" font-size="9">0.7-0.9</text>
<rect x="70" y="28" width="39" height="18" rx="3" fill="#3b82f6" opacity="0.8"/>
<text x="114" y="40.0" fill="#e5e7eb" font-size="8">2323</text>
<circle cx="400" cy="37.0" r="3" fill="#475569"/>
<text x="408" y="40.0" fill="#475569" font-size="8">ok</text>
<text x="65" y="65.0" text-anchor="end" fill="#94a3b8" font-size="9">0.9-1.0</text>
<rect x="70" y="52" width="43" height="18" rx="3" fill="#3b82f6" opacity="0.8"/>
<text x="118" y="64.0" fill="#e5e7eb" font-size="8">2563</text>
<circle cx="400" cy="61.0" r="4" fill="#f59e0b"/>
<text x="408" y="64.0" fill="#f59e0b" font-size="8" font-weight="600">-24%</text>
<text x="65" y="89.0" text-anchor="end" fill="#94a3b8" font-size="9">1.0-1.2</text>
<rect x="70" y="76" width="114" height="18" rx="3" fill="#3b82f6" opacity="0.8"/>
<text x="189" y="88.0" fill="#e5e7eb" font-size="8">6806</text>
<circle cx="400" cy="85.0" r="4" fill="#f59e0b"/>
<text x="408" y="88.0" fill="#f59e0b" font-size="8" font-weight="600">-21%</text>
<text x="65" y="113.0" text-anchor="end" fill="#94a3b8" font-size="9">1.2-1.5</text>
<rect x="70" y="100" width="204" height="18" rx="3" fill="#3b82f6" opacity="0.8"/>
<text x="279" y="112.0" fill="#e5e7eb" font-size="8">12153</text>
<circle cx="400" cy="109.0" r="3" fill="#475569"/>
<text x="408" y="112.0" fill="#475569" font-size="8">ok</text>
<text x="65" y="137.0" text-anchor="end" fill="#94a3b8" font-size="9">1.5-2.0</text>
<rect x="70" y="124" width="280" height="18" rx="3" fill="#3b82f6" opacity="0.8"/>
<text x="355" y="136.0" fill="#e5e7eb" font-size="8">16632</text>
<circle cx="400" cy="133.0" r="4" fill="#10b981"/>
<text x="408" y="136.0" fill="#10b981" font-size="8" font-weight="600">+19%</text>
<text x="65" y="161.0" text-anchor="end" fill="#94a3b8" font-size="9">2.0-2.5</text>
<rect x="70" y="148" width="253" height="18" rx="3" fill="#3b82f6" opacity="0.8"/>
<text x="328" y="160.0" fill="#e5e7eb" font-size="8">15035</text>
<circle cx="400" cy="157.0" r="4" fill="#10b981"/>
<text x="408" y="160.0" fill="#10b981" font-size="8" font-weight="600">+32%</text>
<text x="65" y="185.0" text-anchor="end" fill="#94a3b8" font-size="9">2.5-3.0</text>
<rect x="70" y="172" width="92" height="18" rx="3" fill="#3b82f6" opacity="0.8"/>
<text x="167" y="184.0" fill="#e5e7eb" font-size="8">5480</text>
<circle cx="400" cy="181.0" r="4" fill="#f59e0b"/>
<text x="408" y="184.0" fill="#f59e0b" font-size="8" font-weight="600">-23%</text>
<text x="65" y="209.0" text-anchor="end" fill="#94a3b8" font-size="9">3.0-3.5</text>
<rect x="70" y="196" width="9" height="18" rx="3" fill="#3b82f6" opacity="0.8"/>
<text x="84" y="208.0" fill="#e5e7eb" font-size="8">573</text>
<circle cx="400" cy="205.0" r="4" fill="#ef4444"/>
<text x="408" y="208.0" fill="#ef4444" font-size="8" font-weight="600">-78%</text>
<text x="65" y="233.0" text-anchor="end" fill="#94a3b8" font-size="9">3.5-4.5</text>
<rect x="70" y="220" width="1" height="18" rx="3" fill="#3b82f6" opacity="0.8"/>
<text x="76" y="232.0" fill="#e5e7eb" font-size="8">100</text>
<circle cx="400" cy="229.0" r="4" fill="#ef4444"/>
<text x="408" y="232.0" fill="#ef4444" font-size="8" font-weight="600">-40%</text>
</g></g><g transform="translate(305, 0)"><g transform="translate(0, 55)">
<text x="0" y="-8" fill="#e5e7eb" font-size="11" font-weight="600">偏心率 e</text>
<text x="65" y="17.0" text-anchor="end" fill="#94a3b8" font-size="9">0.0-0.2</text>
<rect x="70" y="4" width="74" height="18" rx="3" fill="#3b82f6" opacity="0.8"/>
<text x="149" y="16.0" fill="#e5e7eb" font-size="8">6842</text>
<circle cx="400" cy="13.0" r="3" fill="#475569"/>
<text x="408" y="16.0" fill="#475569" font-size="8">ok</text>
<text x="65" y="41.0" text-anchor="end" fill="#94a3b8" font-size="9">0.2-0.4</text>
<rect x="70" y="28" width="198" height="18" rx="3" fill="#3b82f6" opacity="0.8"/>
<text x="273" y="40.0" fill="#e5e7eb" font-size="8">18268</text>
<circle cx="400" cy="37.0" r="4" fill="#10b981"/>
<text x="408" y="40.0" fill="#10b981" font-size="8" font-weight="600">+84%</text>
<text x="65" y="65.0" text-anchor="end" fill="#94a3b8" font-size="9">0.4-0.6</text>
<rect x="70" y="52" width="280" height="18" rx="3" fill="#3b82f6" opacity="0.8"/>
<text x="355" y="64.0" fill="#e5e7eb" font-size="8">25808</text>
<circle cx="400" cy="61.0" r="4" fill="#10b981"/>
<text x="408" y="64.0" fill="#10b981" font-size="8" font-weight="600">+108%</text>
<text x="65" y="89.0" text-anchor="end" fill="#94a3b8" font-size="9">0.6-0.8</text>
<rect x="70" y="76" width="106" height="18" rx="3" fill="#3b82f6" opacity="0.8"/>
<text x="181" y="88.0" fill="#e5e7eb" font-size="8">9823</text>
<circle cx="400" cy="85.0" r="4" fill="#ef4444"/>
<text x="408" y="88.0" fill="#ef4444" font-size="8" font-weight="600">-34%</text>
<text x="65" y="113.0" text-anchor="end" fill="#94a3b8" font-size="9">0.8-1.0</text>
<rect x="70" y="100" width="11" height="18" rx="3" fill="#3b82f6" opacity="0.8"/>
<text x="86" y="112.0" fill="#e5e7eb" font-size="8">1059</text>
<circle cx="400" cy="109.0" r="4" fill="#ef4444"/>
<text x="408" y="112.0" fill="#ef4444" font-size="8" font-weight="600">-94%</text>
</g></g><g transform="translate(600, 0)"><g transform="translate(0, 55)">
<text x="0" y="-8" fill="#e5e7eb" font-size="11" font-weight="600">倾角 i (°)</text>
<text x="65" y="17.0" text-anchor="end" fill="#94a3b8" font-size="9">0-10°</text>
<rect x="70" y="4" width="280" height="18" rx="3" fill="#3b82f6" opacity="0.8"/>
<text x="355" y="16.0" fill="#e5e7eb" font-size="8">35517</text>
<circle cx="400" cy="13.0" r="4" fill="#10b981"/>
<text x="408" y="16.0" fill="#10b981" font-size="8" font-weight="600">+84%</text>
<text x="65" y="41.0" text-anchor="end" fill="#94a3b8" font-size="9">10-20°</text>
<rect x="70" y="28" width="114" height="18" rx="3" fill="#3b82f6" opacity="0.8"/>
<text x="189" y="40.0" fill="#e5e7eb" font-size="8">14560</text>
<circle cx="400" cy="37.0" r="4" fill="#f59e0b"/>
<text x="408" y="40.0" fill="#f59e0b" font-size="8" font-weight="600">-15%</text>
<text x="65" y="65.0" text-anchor="end" fill="#94a3b8" font-size="9">20-30°</text>
<rect x="70" y="52" width="60" height="18" rx="3" fill="#3b82f6" opacity="0.8"/>
<text x="135" y="64.0" fill="#e5e7eb" font-size="8">7650</text>
<circle cx="400" cy="61.0" r="4" fill="#ef4444"/>
<text x="408" y="64.0" fill="#ef4444" font-size="8" font-weight="600">-42%</text>
<text x="65" y="89.0" text-anchor="end" fill="#94a3b8" font-size="9">30-45°</text>
<rect x="70" y="76" width="26" height="18" rx="3" fill="#3b82f6" opacity="0.8"/>
<text x="101" y="88.0" fill="#e5e7eb" font-size="8">3338</text>
<circle cx="400" cy="85.0" r="4" fill="#ef4444"/>
<text x="408" y="88.0" fill="#ef4444" font-size="8" font-weight="600">-64%</text>
<text x="65" y="113.0" text-anchor="end" fill="#94a3b8" font-size="9">45-90°</text>
<rect x="70" y="100" width="5" height="18" rx="3" fill="#3b82f6" opacity="0.8"/>
<text x="80" y="112.0" fill="#e5e7eb" font-size="8">735</text>
<circle cx="400" cy="109.0" r="4" fill="#ef4444"/>
<text x="408" y="112.0" fill="#ef4444" font-size="8" font-weight="600">-77%</text>
</g></g>
<g transform="translate(20, 495)">
  <circle cx="0" cy="0" r="4" fill="#ef4444"/>
  <text x="8" y="3" fill="#94a3b8" font-size="8">严重欠巡天 (>30% missing)</text>
  <circle cx="160" cy="0" r="4" fill="#f59e0b"/>
  <text x="168" y="3" fill="#94a3b8" font-size="8">中度欠巡天 (10-30%)</text>
  <circle cx="320" cy="0" r="3" fill="#475569"/>
  <text x="328" y="3" fill="#94a3b8" font-size="8">符合模型预期</text>
  <circle cx="440" cy="0" r="4" fill="#10b981"/>
  <text x="448" y="3" fill="#94a3b8" font-size="8">过巡天 (可能新发现集中区)</text>
</g>
</svg>